<?xml version="1.0" standalone="no"?>
<!DOCTYPE svg PUBLIC "-//W3C//DTD SVG 1.1//EN" "http://www.w3.org/Graphics/SVG/1.1/DTD/svg11.dtd" >
<svg xmlns="http://www.w3.org/2000/svg" xmlns:xlink="http://www.w3.org/1999/xlink" version="1.1">
<metadata>
Created by FontForge 20190801 at Wed Jun 19 15:27:28 2019
 By Jimmy Wärting
Dephiana (c) (Nurf Designs). 2019. All Rights Reserved
</metadata>
<defs>
<font id="Dephiana" horiz-adv-x="1014" >
  <font-face 
    font-family="Dephiana"
    font-weight="400"
    font-stretch="normal"
    units-per-em="2048"
    panose-1="2 0 5 0 0 0 0 0 0 0"
    ascent="1638"
    descent="-410"
    x-height="1188"
    cap-height="1717"
    bbox="-1423 -869.891 8499.83 1998.23"
    underline-thickness="150"
    underline-position="-292"
    unicode-range="U+001D-E038"
  />
<missing-glyph horiz-adv-x="1024" 
d="M100 0v1434h824v-1434h-824zM150 50h724v1334h-724v-1334zM325 1148q31 28 58 43q53 30 112 30q92 0 148 -47.5t56 -127.5q0 -49 -23 -98.5t-87 -129.5q-63 -80 -99 -132t-36 -99q0 -38 24 -133h-32q-35 97 -35 148q0 76 81.5 218t81.5 217q0 57 -33 90t-91 33
q-38 0 -69 -17q-26 -15 -56 -40v45zM389 334l57 58q11 10 20 10q10 0 22 -11l56 -60q9 -11 9 -20q0 -11 -10 -22l-56 -62q-14 -14 -21 -14q-11 0 -20 10l-61 71q-7 9 -7 18q0 10 11 22z" />
    <glyph glyph-name="preview" unicode="Dephiana" horiz-adv-x="8514" 
d="M1840 1026q-148 -89 -224 -219t-91 -265q245 65 343 250q51 97 48 213q-3 21 -18.5 30t-57.5 -9zM7254 250q86 84 164 279.5t77 357.5q-5 78 -58 100.5t-118 -35.5q-57 -56 -126.5 -160.5t-111.5 -239t-15 -278.5q21 -67 75.5 -70.5t112.5 46.5zM5148 249
q87 83 164.5 277t76.5 356q-6 77 -58.5 99.5t-117.5 -35.5q-57 -55 -126.5 -159.5t-111.5 -238t-14 -276.5q20 -66 74.5 -69.5t112.5 46.5zM4167 1715q-44 67 -123 84.5t-166.5 -53.5t-155.5 -271q218 -52 333 -25t140 101.5t-28 163.5zM1544 -778q75 -24 140 34.5
t117 159.5t87 202t50 160q-195 -19 -311.5 -93.5t-160.5 -170.5t-23 -177.5t101 -114.5zM2601 967q-98 -123 -153.5 -317t-37.5 -308q19 -73 81 -102t121 10q34 28 61 61q-57 22 -59 79q8 49 56 72t93 -6q51 127 59.5 249.5t-3.5 199.5q-13 63 -52.5 89t-85.5 18.5
t-80 -45.5zM1052 1547q121 -117 165 -284t23.5 -352.5t-92 -358.5t-182.5 -302q-117 -157 -261.5 -213.5t-272 -26.5t-195 132t-31.5 262l241 929q22 43 82 21t107.5 -79t31.5 -117l-232 -860q-29 -145 7 -177.5t114 24t173 178.5q109 146 174 337t77.5 382.5t-37.5 336
t-172 197.5q-163 59 -279 -6.5t-164.5 -199t-10.5 -280.5q-150 8 -191.5 72.5t-20.5 160.5q44 180 156.5 274.5t257.5 114.5t287 -24t245 -141zM6804 304q-4 -10 -9 -19q-85 -171 -183 -238q-80 -49 -170 -41.5t-143.5 86.5t-22.5 247q76 297 165 595q-113 -102 -264 -340.5
t-255 -532.5l-9 -30q-22 -43 -81.5 -21t-105.5 78.5t-29 117.5l264 965q22 43 81.5 21t105.5 -78.5t30 -117.5l-108 -391q105 202 212.5 343t196.5 212q49 35 111 34q6 0 14.5 -1t23.5 -4q-7 2 -3 1t15 -4q41 -2 71 -42.5t11 -117.5q-15 -46 -58 -201t-85.5 -314t-55.5 -216
q-12 -77 12 -103.5t63 -12.5t71 57q48 63 97 170q31 68 57 130q17 80 49 161q71 183 180 315q113 128 220.5 166t191.5 8.5t124 -103.5l4 15q27 60 96.5 83.5t124 7t37.5 -74.5q-40 -150 -83 -299q-44 -148 -82 -293.5t-62 -285.5q-39 -232 12.5 -370.5t164 -182t256.5 11.5
q109 54 195.5 155.5t131 235t25.5 283.5q-21 115 -77 170t-129 38.5t-146 -117.5q-141 -215 -58 -489q-95 -59 -168.5 -22t-103.5 187q-13 168 51 305t172 220.5t224.5 93t208.5 -76.5q95 -104 113.5 -285t-42 -371.5t-203.5 -321.5q-173 -143 -337 -159.5t-294 65.5
t-200 237.5t-53 358.5q-83 -116 -169 -162t-160.5 -39.5t-121.5 50.5q-99 100 -111 253zM2066 231q-84 -110 -189 -176q-127 -67 -248 -55t-221 112q-89 108 -110 266t20.5 324t141.5 296t254 181q113 32 208.5 -8t141.5 -137.5t11 -241.5q-61 -187 -208 -264.5t-346 -77.5
q6 -156 79 -248q58 -60 130 -68t161 48q111 79 192 221q33 58 62 121l173 645q16 34 58 27t86 -40.5t67 -79.5q54 63 109 91q78 36 173 11.5t169 -117t88 -257.5q8 -187 -59 -386q79 16 141 85q28 31 51 74l221 807q-472 89 -818.5 136t-560.5 8.5t-287 -204.5
q0 245 133.5 348.5t369.5 102t545 -71t661 -168.5q112 251 241.5 352t254 93t219 -84t135.5 -180q54 -133 15 -241.5t-195.5 -151t-455.5 20.5l-192 -695q106 186 213 316t194 197q53 36 117 33.5t104 -44.5t21 -124q-67 -212 -124 -419h1q-45 -170 -78 -313
q-16 -80 8.5 -106t65 -11t73.5 58q48 63 98 170q26 54 48 105q9 35 19 71l157 585q23 43 82 20.5t105.5 -79t29.5 -116.5l-183 -698q-11 -78 12 -104t60.5 -11.5t70.5 57.5q47 63 97 170q14 31 28 61q15 112 60 226q71 182 180 312q113 127 220.5 165t191 8.5t124.5 -102.5
l2 6q1 4 2 9q27 60 96 83t123.5 7t38.5 -74q-47 -166 -93 -336.5t-69 -257.5q-11 -41 -12 -44q-93 -371 -110 -556.5t81 -223.5t351 32q270 91 489.5 149t393.5 70q68 2 120.5 -30t82 -76.5t31 -78t-32.5 -34.5q-240 4 -699 -97q-467 -106 -706 -72.5t-303 198.5t-5 455
q-83 -117 -170 -164t-162 -40.5t-122 50.5q-90 90 -108 223q-82 -162 -178 -227q-78 -47 -156.5 -47t-132.5 48.5t-60 145.5q-1 12 0 25q-71 -119 -150 -172q-78 -48 -157.5 -47.5t-134 49t-59.5 145.5q-3 68 20 177t60 237h1q43 172 105 340q-105 -83 -251.5 -299
t-256.5 -494l-34 -125q-23 -43 -82.5 -21t-106 79t-29.5 117l48 175q-79 -62 -188 -80q-59 -120 -149.5 -202t-210.5 -103q-72 -11 -152.5 38t-126.5 159l-66 -242q188 -24 413 -58q248 -39 503 -71t479 -38t378 33.5t200 145.5q-1 -232 -158.5 -330t-437 -97t-646.5 64.5
t-787 153.5q-94 -285 -197.5 -423t-213 -175t-218.5 -19q-157 35 -225.5 146.5t-36.5 250.5q26 130 129.5 230.5t251.5 157.5t309 54zM4661 1280q-21 -28 -74 -16.5t-95.5 44.5t-33.5 69l72 209q11 33 59.5 36t103 -16.5t82.5 -56t-2 -81.5z" />
    <glyph glyph-name=".notdef" horiz-adv-x="1024" 
d="M100 0v1434h824v-1434h-824zM150 50h724v1334h-724v-1334zM325 1148q31 28 58 43q53 30 112 30q92 0 148 -47.5t56 -127.5q0 -49 -23 -98.5t-87 -129.5q-63 -80 -99 -132t-36 -99q0 -38 24 -133h-32q-35 97 -35 148q0 76 81.5 218t81.5 217q0 57 -33 90t-91 33
q-38 0 -69 -17q-26 -15 -56 -40v45zM389 334l57 58q11 10 20 10q10 0 22 -11l56 -60q9 -11 9 -20q0 -11 -10 -22l-56 -62q-14 -14 -21 -14q-11 0 -20 10l-61 71q-7 9 -7 18q0 10 11 22z" />
    <glyph glyph-name=".null" horiz-adv-x="0" 
 />
    <glyph glyph-name=".null" horiz-adv-x="0" 
 />
    <glyph glyph-name="nonmarkingreturn" horiz-adv-x="508" 
 />
    <glyph glyph-name="space" unicode=" " horiz-adv-x="508" 
 />
    <glyph glyph-name="space" unicode="&#xa0;" horiz-adv-x="508" 
 />
    <glyph glyph-name="exclam" unicode="!" horiz-adv-x="749" 
d="M413 1663v0q12 47 56 51t96.5 -28t91.5 -92q32 -75 3 -166l-243 -946q-19 -105 -83 -89q-84 26 -115 79t-18 129zM258 339v0q48 -6 82.5 -45t37.5 -114q3 -79 -32 -135t-96 -43q-124 39 -125 164q7 83 45.5 130.5t87.5 42.5z" />
    <glyph glyph-name="quotedbl" unicode="&#x22;" horiz-adv-x="863" 
d="M706 1699v0q76 -41 71 -141.5t-119 -225.5q-24 -22 -54.5 -22.5t-50 15t-11.5 42.5q14 37 17 63t-12 56q-24 38 -32 76q-10 84 47 127t144 10zM404 1699v0q76 -41 71 -141.5t-119 -225.5q-24 -22 -54.5 -22.5t-50 15t-11.5 42.5q14 37 17 63t-12 56q-24 38 -32 76
q-10 84 47 127t144 10z" />
    <glyph glyph-name="numbersign" unicode="#" horiz-adv-x="1601" 
d="M1470 1135v0q40 -10 34 -64.5t-44 -105t-92 -48.5l-145 4l-53 -198l201 -6q40 -10 34 -64.5t-44 -105t-92 -48.5l-158 4l-65 -244q-19 -37 -70.5 -18t-92 67.5t-25.5 100.5l27 100l-200 5l-68 -255q-20 -37 -71.5 -18t-91.5 67.5t-25 100.5l30 111l-215 6
q-40 10 -34 64.5t44 105t92 48.5l171 -5l54 199l-228 5q-40 11 -34 65.5t44 105t92 47.5l184 -4l66 245q19 36 70.5 17t91.5 -67.5t26 -100.5l-27 -100l200 -5l68 256q20 36 71 17t91.5 -67.5t25.5 -100.5l-30 -111zM944 728v0l53 199l-200 5l-53 -199z" />
    <glyph glyph-name="dollar" unicode="$" horiz-adv-x="1205" 
d="M1076 1041v0q-34 -38 -91 -31.5t-92.5 44.5t-2.5 94q62 87 63.5 150t-36 101.5t-92.5 53.5q-78 19 -135 -7t-87.5 -76t-31.5 -104q1 -91 77 -185.5t194 -176.5q137 -91 194 -196.5t53 -211.5q-7 -118 -86.5 -199t-211.5 -113q-12 -76 -27 -163q-14 -31 -64 -21t-92.5 44
t-35.5 77l8 52q-173 30 -268 132t-104.5 221t76.5 197q57 44 115.5 34t93.5 -48t20 -77q-87 -170 -64 -256t125 -114q107 -18 161 34t86 134q28 97 -24.5 182.5t-154.5 159.5q-149 107 -214.5 204.5t-72.5 182.5q-14 151 66.5 244.5t212.5 130.5q42 10 83 14q11 67 24 144
q14 30 64 20.5t92.5 -44t34.5 -76.5l-9 -62q99 -31 158.5 -100t62.5 -168t-68 -221z" />
    <glyph glyph-name="percent" unicode="%" horiz-adv-x="1610" 
d="M1109 1710v0q22 20 62.5 -6t67 -69t6.5 -74l-716 -1546q-22 -20 -61 6t-64.5 69t-4.5 74zM622 928v0q-71 -52 -157 -53q-56 0 -110.5 22t-90.5 77q-56 97 -56.5 231.5t44 259.5t125.5 194q34 27 76.5 40.5t81.5 13.5q53 0 108 -22t92 -78q56 -97 56.5 -231.5t-44 -259.5
t-125.5 -194zM445 935v0q15 -2 22 3t17 19q2 2 4 5q32 47 63 162.5t47.5 240t3.5 198.5q-16 78 -49 76q-16 1 -23.5 -4.5t-19.5 -22.5q-32 -47 -63 -162.5t-47.5 -240.5t-3.5 -198q17 -77 49 -76zM1182 837v0q53 0 108 -22t92 -78q55 -97 56 -231.5t-44 -259.5t-125 -194
q-71 -52 -158 -53q-56 1 -110 22.5t-90 76.5q-56 97 -56.5 231.5t44 259.5t124.5 195q35 26 77.5 39.5t81.5 13.5zM1135 86v0q31 47 62.5 162.5t48 240.5t3.5 198q-16 78 -50 76q-15 1 -22.5 -4.5t-19.5 -22.5q-32 -47 -63.5 -162.5t-47.5 -240t-3 -198.5q16 -77 49 -76
q15 -2 22 3t17 19q1 2 4 5z" />
    <glyph glyph-name="ampersand" unicode="&#x26;" horiz-adv-x="1698" 
d="M1236 929v0q159 54 241 128t107 162q113 -168 55.5 -284t-276.5 -184q-9 -3 -19 -7q60 -201 12 -354.5t-166.5 -250.5t-269 -127.5t-294.5 14t-244 174.5q-87 135 -82.5 294t100 286t281.5 167q-117 75 -140.5 200t18.5 253.5t124 213.5q71 70 169 91t195.5 -0.5
t167.5 -79.5q111 -99 128.5 -253.5t-64.5 -305.5q-48 -79 -109 -82.5t-90.5 42.5t16.5 118q30 39 60.5 109.5t40 147t-23.5 132.5q-37 56 -100.5 65.5t-148.5 -48.5q-99 -81 -140.5 -192.5t-24 -215t93.5 -157.5q40 -12 86 -9q22 -9 23 -34.5t-10 -47.5t-26 -21q-35 7 -77 8
v0v0q-155 -42 -221 -121.5t-85 -188.5q-29 -175 74.5 -275t322.5 -64q154 34 225 157.5t52 299.5q-103 -49 -171 -118.5t-44 -158.5q-98 60 -131 148.5t46.5 185.5t318.5 183z" />
    <glyph glyph-name="quotesingle" unicode="'" horiz-adv-x="559" 
d="M403 1699v0q76 -41 70.5 -141.5t-118.5 -225.5q-24 -22 -54.5 -22.5t-50 15t-11.5 42.5q14 37 17 63t-12 56q-24 38 -32 76q-10 84 47 127t144 10z" />
    <glyph glyph-name="parenleft" unicode="(" horiz-adv-x="907" 
d="M1145 1862v0q-193 -144 -330.5 -397.5t-203 -551t-42.5 -572t151 -461.5q-109 -60 -176 -52.5t-104 63.5q-142 246 -138.5 610.5t137 739t381.5 650.5q91 98 177 89.5t148 -118.5z" />
    <glyph glyph-name="parenright" unicode=")" horiz-adv-x="890" 
d="M326 1928v0q109 60 176 52.5t104 -62.5q142 -246 138.5 -611t-137 -739.5t-382.5 -649.5q-91 -98 -177 -90t-148 118q194 144 331.5 397.5t202.5 551t42 572.5t-150 461z" />
    <glyph glyph-name="asterisk" unicode="*" horiz-adv-x="1000" 
d="M791 1483v0q16 1 30.5 -4t23.5 -22q10 -30 -2 -66q-17 -74 -80 -79l-105 -1l82 -150l3 -7l3 -21v-4q-2 -32 -23.5 -54.5t-50 -24t-51.5 29.5v0l-95 170l-96 -171q-35 -43 -77.5 -22t-46.5 72v4l3 21l3 7l79 145l-138 -2l-7 2l-17 7l-3 3q-22 20 -25.5 53.5t11.5 63
t48 35.5l142 4l-81 146q-10 15 -14 32t3 33q6 15 19.5 23t27.5 13q63 22 99 -38l70 -129l70 129q35 60 99 38q14 -5 27 -13t20 -23q7 -16 3 -33t-14 -32l-78 -139z" />
    <glyph glyph-name="plus" unicode="+" horiz-adv-x="1594" 
d="M1360 984v0q52 -11 55 -61t-28 -104t-81 -75l-41 -6l-337 8l-118 -439q-22 -48 -71.5 -39t-94 51.5t-53.5 96.5l4 42l79 295l-335 9q-51 11 -54 61t27.5 103.5t80.5 74.5l42 6l305 -7l95 353q22 48 71.5 39t94.5 -51.5t54 -95.5l-4 -42l-57 -210z" />
    <glyph glyph-name="comma" unicode="," horiz-adv-x="704" 
d="M319 291v0q76 -41 71 -141.5t-119 -225.5q-24 -22 -54.5 -23t-50 15t-11.5 43q14 37 17.5 63t-12.5 56q-24 38 -32 76q-9 84 47.5 127t143.5 10z" />
    <glyph glyph-name="hyphen" unicode="-" horiz-adv-x="1102" 
d="M952 930v0q41 -9 36 -63.5t-41.5 -106t-90.5 -51.5l-525 -2q-41 10 -36 64.5t41 106t90 50.5z" />
    <glyph glyph-name="hyphen" unicode="&#xad;" horiz-adv-x="1102" 
d="M952 930v0q41 -9 36 -63.5t-41.5 -106t-90.5 -51.5l-525 -2q-41 10 -36 64.5t41 106t90 50.5z" />
    <glyph glyph-name="period" unicode="." horiz-adv-x="704" 
d="M270 339v0q48 -6 82.5 -45t37.5 -114q3 -79 -32 -135t-96 -43q-124 39 -125 164q7 83 45.5 130.5t87.5 42.5z" />
    <glyph glyph-name="slash" unicode="/" horiz-adv-x="907" 
d="M817 1887v0q17 18 55.5 -4t78 -64.5t60.5 -87.5t4 -73l-759 -1862q-17 -18 -55 4t-77.5 64.5t-61 87.5t-4.5 73z" />
    <glyph glyph-name="zero" unicode="0" 
d="M913 1508v0q75 -198 51.5 -473.5t-120 -531.5t-242.5 -398q-117 -107 -250 -108q-92 1 -169 45.5t-126 156.5q-75 199 -51.5 474t120 531.5t242.5 398.5q123 110 252 110q59 0 113.5 -19t100.5 -64.5t79 -121.5zM422 175v0q61 96 134 333t123 492t41 405q-8 83 -31 119
t-53 38q-27 1 -47.5 -10.5t-44.5 -45.5q-61 -96 -134 -333t-123 -492t-41 -405q9 -83 32 -118.5t53 -38.5q27 -3 47.5 9.5t43.5 46.5z" />
    <glyph glyph-name="one" unicode="1" horiz-adv-x="853" 
d="M654 1713v0q39 4 88 -26.5t80 -79t16 -97.5l-340 -1282h154q48 -11 44 -68.5t-44.5 -111t-102.5 -51.5l-505 -1q-47 11 -43 68.5t44 111t103 51.5h84l279 1054q-49 -25 -105 -1t-117 121q75 48 125 96.5t89 94.5q30 34 61 66q6 6 11 12q21 21 37.5 32.5t41.5 10.5z" />
    <glyph glyph-name="two" unicode="2" 
d="M724 1692v0q149 -76 200 -198t26 -296q-48 -185 -155 -321.5t-235 -258.5q-79 -78 -154.5 -160.5t-136.5 -178.5q130 20 251 30t213 -10.5t136.5 -90.5t21.5 -209q-184 62 -385 55.5t-412 -55.5q-83 132 -92 207.5t27 171.5q36 83 111.5 169.5t169.5 179.5
q100 98 194 205.5t157 227.5l32 61q64 143 39 238t-99.5 97t-158.5 -133t-136 -452q-63 17 -115 52.5t-72.5 112.5t11.5 217q54 147 155 235t212.5 114.5t194.5 -10.5z" />
    <glyph glyph-name="three" unicode="3" 
d="M527 1709v0q154 20 269 -54t162.5 -204t-2 -279.5t-226.5 -280.5q117 -56 153.5 -192.5t-2.5 -292.5t-148 -272.5t-283 -134.5h-4h-3h-2q-183 -10 -304 88.5t-135.5 267.5t119.5 371q113 -35 157.5 -102.5t-2.5 -176.5q-35 -88 -18.5 -165.5t77.5 -99.5t160 58
q91 97 127 228t8 271q-15 54 -55 41q-89 -29 -133.5 9.5t-49 93.5t26.5 75q95 52 175 130t128.5 163.5t46.5 157.5t-71 111q-82 29 -191.5 -57t-180.5 -268q-81 34 -110.5 111.5t-5.5 165.5t102.5 155t214.5 82z" />
    <glyph glyph-name="four" unicode="4" horiz-adv-x="1101" 
d="M841 1685v0q21 43 82 21t110 -78.5t34 -117.5l-164 -729q59 -22 88.5 -57.5t36.5 -71.5t0 -58.5t-20 -19.5q-79 -4 -154 -11l-122 -537q-20 -43 -81 -21t-110.5 79t-34.5 117l76 335q-178 -21 -366 -19q-54 13 -107 71.5t-85 121.5t-22 89q60 97 144 207.5t179 227.5
q99 122 192 244t163 236q50 -25 87.5 -50t55.5 -60zM245 703v0l388 59l133 592q-8 -16 -18 -32q-131 -175 -295 -366q-115 -136 -208 -253z" />
    <glyph glyph-name="five" unicode="5" horiz-adv-x="1058" 
d="M829 1453v0l-322 39l-64 -338q51 44 131 44t157 -41q129 -68 188 -200.5t56.5 -291.5t-59.5 -306.5t-159 -246.5t-242 -112v0h-9q-135 -6 -249.5 48.5t-185 155.5t-71.5 236t91 291l2 3l3 -1q118 -36 172.5 -104t20.5 -180q-25 -88 4.5 -163t95.5 -95t151 56
q48 44 91.5 136t68 202.5t13 212t-73.5 165.5q-30 31 -77.5 38.5t-94.5 -21t-75 -105.5l-1 -2l-2 -1q-15 -5 -29 -5q-38 -9 -90 21t-87 79.5t-21 100.5l123 617q10 24 34 28v0h1q9 1 19 0l625 -3q57 -11 50 -75t-58 -123.5t-127 -58.5z" />
    <glyph glyph-name="six" unicode="6" 
d="M330 1030v0q115 145 227 163t204.5 -52t147.5 -189.5t56 -249.5q-1 -314 -148 -504.5t-380 -200.5q-139 10 -235 100t-147 233t-55 311q10 443 183 707t474 365q45 8 77 -50t38 -123.5t-28 -80.5q-193 -91 -285.5 -201.5t-128.5 -227.5zM625 313v0q55 141 58 330t-52 291
q-59 90 -134.5 64t-132.5 -157q-56 -140 -58.5 -329t52.5 -291q59 -91 134 -64.5t133 156.5z" />
    <glyph glyph-name="seven" unicode="7" horiz-adv-x="950" 
d="M666 1064v0q85 -7 128 4t60 30q6 -127 -31.5 -195.5t-124.5 -72.5l-150 17q-190 -385 -292 -821q-23 -43 -83 -21t-106.5 79t-29.5 118q86 351 246 689q-80 15 -136 14.5t-72 -28.5q11 232 141 221q76 -6 152 -14q7 -1 13 -1q109 200 246 394q-247 -63 -387.5 -75
t-190.5 56.5t-34 248.5v6l5 -2q63 -26 186.5 -29t254.5 5.5t232 16.5q101 9 116 8q40 3 88.5 -26t78 -76.5t13.5 -98.5q-183 -212 -323 -447z" />
    <glyph glyph-name="eight" unicode="8" 
d="M435 1689v0q135 48 252.5 14.5t197 -123.5t100 -212.5t-38.5 -253.5t-220 -246q166 -106 203.5 -259t-24.5 -301t-195 -238t-309 -68q-130 10 -236 105t-148 238t21.5 299t272.5 290q-122 134 -139.5 289t53 283.5t210.5 182.5zM663 493v0q1 83 -31 138t-76.5 86.5
t-82.5 44.5q-33 -18 -81.5 -67t-78.5 -99q-30 -52 -44.5 -124.5t-5 -143.5t54.5 -117q64 -56 157.5 -19t148.5 147q31 67 39 154zM703 1164v0q42 88 50.5 199.5t-26.5 163.5q-42 45 -122.5 5t-132.5 -145q-34 -74 -51 -184q-5 -58 16.5 -113.5t72.5 -86.5q38 11 99 57
t94 104z" />
    <glyph glyph-name="nine" unicode="9" 
d="M528 1715v0q139 -10 235 -100.5t147 -233t55 -310.5q-10 -443 -183 -707.5t-474 -364.5q-45 -8 -77.5 49.5t-38 123.5t28.5 81q193 91 285.5 201t127.5 228q-114 -146 -226 -163.5t-204.5 52.5t-147.5 189.5t-56 249.5q1 314 148 504.5t380 200.5zM601 870v0
q55 141 58 330t-52 291q-59 90 -134 64t-133 -156q-55 -141 -58 -330t52 -291q59 -90 134 -64t133 156z" />
    <glyph glyph-name="colon" unicode=":" horiz-adv-x="755" 
d="M434 1045v0q47 -6 81.5 -45t38.5 -114q3 -79 -32 -135t-96 -43q-124 39 -125 164q7 83 45.5 130.5t87.5 42.5zM333 339v0q47 -6 81.5 -45t38.5 -114q3 -79 -32 -135t-97 -43q-123 39 -124 164q7 83 45.5 130.5t87.5 42.5z" />
    <glyph glyph-name="semicolon" unicode=";" horiz-adv-x="780" 
d="M395 291v0q76 -41 71 -141.5t-118 -225.5q-24 -22 -54.5 -23t-50.5 15t-12 43q14 37 17.5 63t-12.5 56q-23 38 -31 76q-10 84 47 127t143 10zM411 1045v0q48 -6 82.5 -45t37.5 -114q3 -79 -32 -135t-96 -43q-124 39 -125 164q7 83 45.5 130.5t87.5 42.5z" />
    <glyph glyph-name="semicolon" unicode="&#x37e;" horiz-adv-x="780" 
d="M395 291v0q76 -41 71 -141.5t-118 -225.5q-24 -22 -54.5 -23t-50.5 15t-12 43q14 37 17.5 63t-12.5 56q-23 38 -31 76q-10 84 47 127t143 10zM411 1045v0q48 -6 82.5 -45t37.5 -114q3 -79 -32 -135t-96 -43q-124 39 -125 164q7 83 45.5 130.5t87.5 42.5z" />
    <glyph glyph-name="less" unicode="&#x3c;" horiz-adv-x="1212" 
d="M1023 1471v0q47 11 72 -38.5t26 -110.5t-26 -82l-607 -396l488 -346q21 -25 20 -69t-16 -89.5t-35 -73t-38 -17.5l-670 452q-24 18 -24.5 75t21 118.5t65.5 90.5z" />
    <glyph glyph-name="equal" unicode="=" horiz-adv-x="1399" 
d="M1268 1198v0q40 -9 35.5 -64t-41 -106.5t-90.5 -50.5l-796 -2q-40 9 -35.5 63.5t41 106t90.5 51.5zM1181 697v0q40 -9 35.5 -64t-41 -106.5t-90.5 -50.5l-796 -2q-40 9 -35.5 63.5t41 106t90.5 51.5z" />
    <glyph glyph-name="greater" unicode="&#x3e;" horiz-adv-x="1204" 
d="M1096 1018v0q24 -17 24.5 -74.5t-21 -119t-65.5 -90.5l-724 -485q-47 -12 -72 37.5t-26 110.5t26 83l607 396l-488 346q-21 24 -20 68.5t16 89.5t35 72.5t38 18.5z" />
    <glyph glyph-name="question" unicode="?" horiz-adv-x="1119" 
d="M363 339v0q47 -6 81.5 -45t38.5 -114q3 -79 -32 -135t-96 -43q-124 39 -125 164q7 83 45.5 130.5t87.5 42.5zM266 1560v0q80 111 211 141t261 -10t209 -139q114 -137 122.5 -294.5t-98.5 -299t-338 -230.5q-118 -46 -160 -118t-30 -181q0 -20 -26.5 -26.5t-56.5 0
t-40 27.5q-57 330 212 457q134 68 213 174t86.5 224t-73.5 222q-46 48 -110 43t-116 -61t-62 -161.5t51 -260.5q-107 -32 -192 35.5t-110.5 192.5t47.5 265z" />
    <glyph glyph-name="at" unicode="@" horiz-adv-x="2128" 
d="M1938 1185v0q73 -143 76.5 -324t-60 -359t-190.5 -313.5t-313 -188.5q-134 -33 -215.5 28t-86.5 208q-1 5 -1 13q-79 -106 -160.5 -148t-151.5 -34.5t-115 48.5q-106 106 -108 275t66.5 344.5t173.5 301.5q102 116 200.5 154.5t178 18.5t124.5 -81q26 56 91.5 78
t116.5 6.5t36 -70.5q-13 -45 -28 -97q-48 -165 -100 -363t-83 -389q-5 -71 53.5 -82.5t142.5 44t155 186.5t92 344q9 234 -93.5 383.5t-267 212.5t-341 38t-313.5 -141q-110 -90 -201.5 -242.5t-144.5 -333t-48 -351.5t87.5 -298t262.5 -174t477 22q-36 -97 -133 -158.5
t-236.5 -68t-304.5 61.5q-172 81 -262.5 245t-100.5 376t60 436.5t219 425.5q162 208 368.5 300.5t417 80t385.5 -119t275 -295.5zM1048 306v0q85 81 160 272q33 137 70 274q4 35 2 65q-5 75 -56 96.5t-113 -34.5q-55 -53 -122.5 -153.5t-107.5 -229.5t-14 -268
q20 -64 72.5 -67.5t108.5 45.5z" />
    <glyph glyph-name="A" unicode="A" horiz-adv-x="1474" 
d="M1558 715v0q8 19 24.5 20.5t29 -10t8.5 -34.5q-75 -235 -160 -406t-184 -237q-79 -48 -157.5 -48t-133 49t-59.5 146q1 114 94 431q-123 12 -254 1l-30 -2q-162 -282 -318 -516t-294 -366q-46 -34 -118.5 -30t-116 35t-3.5 79q168 138 329 350t314 452q-93 13 -135.5 83
t-6.5 232q34 -61 103.5 -88.5t159.5 -37.5q6 9 11 18q137 217 265.5 405.5t248 311.5t228.5 147q45 19 90 18.5t70.5 -20.5t12.5 -61q-45 -160 -136 -462q-79 -261 -152 -509t-101 -370q-16 -80 8.5 -106t65 -11t72.5 58q48 63 97.5 170t85 198t41.5 109zM1054 744v0
q67 225 136 443q63 201 103 339q-50 -45 -97.5 -107t-80.5 -121q-58 -103 -118 -211q-80 -144 -162 -289q123 -12 219 -54z" />
    <glyph glyph-name="B" unicode="B" horiz-adv-x="1298" 
d="M1125 1547v0q98 -101 119.5 -220.5t-18.5 -229t-127.5 -181t-207.5 -75.5q108 -20 178.5 -105.5t72 -212.5t-99.5 -273q-117 -157 -272.5 -213.5t-297.5 -26.5t-220.5 132t-43.5 262l239 929q22 43 82 21t107.5 -79t31.5 -117l-79 -302q157 2 265 87t151.5 208t7.5 240.5
t-168 184.5q-164 59 -297.5 -6.5t-200 -199t-29.5 -280.5q-150 8 -191.5 72.5t-20.5 160.5q44 180 167.5 274.5t283 114.5t312.5 -24t256 -141zM806 323v0q75 95 89.5 198.5t-62 167.5t-277.5 40l-118 -431q-28 -145 26.5 -177.5t150 24t191.5 178.5z" />
    <glyph glyph-name="C" unicode="C" horiz-adv-x="1155" 
d="M1240 710v0q6 16 22.5 20t29.5 -6.5t9 -37.5q-148 -509 -617 -656q-165 -43 -314.5 -21t-250 146.5t-119.5 390.5q3 403 168.5 691.5t444.5 432.5q123 59 232 48.5t188 -70.5q118 -102 131 -268.5t-72 -324.5q-49 -82 -116 -84.5t-102.5 47.5t11.5 124q53 78 81 173
t22 210q-28 188 -197 66q-189 -150 -307 -364.5t-174 -486.5q-40 -261 20.5 -407.5t235.5 -162.5q216 -5 397.5 122t276.5 418z" />
    <glyph glyph-name="D" unicode="D" horiz-adv-x="1286" 
d="M1052 1547v0q121 -117 165 -284t24 -352.5t-92 -358.5t-183 -302q-117 -157 -261.5 -213.5t-272 -26.5t-195 132t-31.5 262l241 929q22 43 82 21t107.5 -79t31.5 -117l-232 -860q-29 -145 7 -177.5t114 24t173 178.5q109 146 174 337t77.5 382.5t-37.5 336t-172 197.5
q-163 59 -278.5 -6.5t-164.5 -199t-11 -280.5q-150 8 -191.5 72.5t-20.5 160.5q44 180 156.5 274.5t258 114.5t287 -24t244.5 -141z" />
    <glyph glyph-name="E" unicode="E" horiz-adv-x="1116" 
d="M1196 698v0q11 23 28.5 27.5t29.5 -6t7 -33.5q-121 -358 -412 -549q-132 -80 -271 -115.5t-267 -8t-228 137.5q-95 125 -81.5 290t121.5 303t295 181q-113 77 -131.5 206.5t28 262.5t131.5 221q73 72 171 93t194 -1t162 -81q106 -101 117 -261.5t-76 -316.5
q-50 -82 -110.5 -86t-88 44t21.5 122q31 40 64 113.5t45 152.5t-19 137q-34 58 -96.5 68t-148.5 -51q-102 -83 -147 -198.5t-32 -222.5t87 -164q39 -11 84 -9q22 -9 22 -35t-12 -49t-26 -22q-34 7 -76 8h-0.5h-0.5q-155 -43 -223 -125.5t-91 -195.5q-36 -182 63 -285
t316 -66q164 30 305.5 145.5t244.5 368.5z" />
    <glyph glyph-name="F" unicode="F" horiz-adv-x="1248" 
d="M738 1042v0q126 -7 220 11.5t119 58.5q15 -211 -150 -219q-91 -2 -225 10l-228 -875q-22 -43 -81.5 -21t-106 79t-29.5 118l194 745q-109 38 -193 101t-126 145q-30 52 -36 121t27.5 142.5t121.5 137.5q96 63 198.5 94t233.5 28q14 3 30 -1l1 2q194 -18 286 -37
q94 -19 172 -16t229 53q2 -87 -19.5 -160.5t-113.5 -104.5q-63 -13 -151 -1.5t-251 57.5zM484 1076v0l135 516l-58 2q-195 -6 -297.5 -97.5t-63.5 -214.5q30 -79 105 -128.5t179 -77.5z" />
    <glyph glyph-name="G" unicode="G" horiz-adv-x="1200" 
d="M802 1716v0q90 11 174.5 -29t136 -129.5t42 -225.5t-106.5 -316q-44 -56 -103.5 -54.5t-93 49t3.5 132.5q54 85 87.5 191t34 192.5t-44.5 113t-147 -46.5q-232 -177 -366 -429t-162 -488.5t58 -367.5q59 -75 193 26t314 365q2 1 6 2v2q21 44 78.5 27.5t103 -68
t31.5 -112.5l-39 -192q-64 -303 -139 -486.5t-160 -276.5t-176.5 -122.5t-187.5 -24.5q-156 22 -214 125.5t-30 242.5q37 133 112.5 185t146.5 26t95 -125q-86 -44 -132 -112.5t-41 -131.5t74 -89q72 -19 129.5 48t116.5 243t138 482l26 101q-191 -264 -344.5 -326t-256 23
t-140.5 262.5t1 392.5q73 307 207 504t288 297.5t287 119.5z" />
    <glyph glyph-name="H" unicode="H" horiz-adv-x="1480" 
d="M1565 716v0q8 18 24.5 20t28.5 -10t8 -35q-75 -235 -160 -405.5t-184 -237.5q-80 -49 -170.5 -42t-143.5 86.5t-22 247.5q45 182 83 331q-127 2 -257 -4q-46 -2 -90 -3l-166 -636q-22 -43 -81.5 -21t-106 79t-29.5 118l122 468q-123 15 -177.5 85.5t-5.5 226.5
q33 -44 94.5 -70t141.5 -39l170 654q12 46 -9 55t-64 -8q-142 -62 -216 -198.5t-39 -287.5q-150 8 -190.5 72.5t-16.5 160.5q39 149 132 238.5t217.5 127t256.5 28.5q216 -40 160 -314l-145 -555l24 -2q164 -9 312 -33q98 378 240 878q23 43 82 21t105 -79t28 -118
l-184 -666h-1q-84 -302 -143 -553q-12 -77 12 -103.5t63 -12.5t72 57q48 64 97.5 170.5t85 198t41.5 108.5q0 1 1 2z" />
    <glyph glyph-name="I" unicode="I" horiz-adv-x="858" 
d="M715 1717v0q216 -40 160 -314l-359 -1375q-23 -43 -82.5 -21t-105.5 79t-29 118l345 1325q12 46 -9 55t-64 -8q-142 -62 -216 -198.5t-40 -287.5q-149 8 -189.5 72.5t-16.5 160.5q38 149 131.5 238.5t218 127t256.5 28.5z" />
    <glyph glyph-name="J" unicode="J" horiz-adv-x="830" 
d="M716 1717v0q216 -40 160 -314l-272 -1045q-79 -324 -156.5 -511t-157.5 -273.5t-166.5 -109t-182.5 -16.5q-156 22 -214 125.5t-29 242.5q36 133 111.5 185t146.5 26t95 -125q-85 -44 -131.5 -112.5t-41 -131.5t73.5 -89q70 -19 125 42.5t111.5 221.5t129.5 439l328 1257
q11 46 -9.5 55t-64.5 -8q-141 -62 -215.5 -198.5t-39.5 -287.5q-150 8 -190 72.5t-17 160.5q39 149 132.5 238.5t217.5 127t256 28.5z" />
    <glyph glyph-name="K" unicode="K" horiz-adv-x="1517" 
d="M1601 715v0q9 19 25.5 21t28.5 -9t8 -33q-133 -469 -404 -639h-1q-3 -3 -27.5 -18.5t-64 -26.5t-86.5 -1t-93.5 58t-86 149.5t-65.5 273.5h1q-14 93 -22 189q-2 23 -4 45q-150 -275 -268 -593l-27 -103q-22 -43 -81.5 -21t-106 79t-29.5 118l346 1325q11 46 -9.5 55
t-64.5 -8q-141 -61 -215.5 -198t-39.5 -288q-150 8 -190 72.5t-17 161.5q39 148 132.5 237.5t217.5 127t256 28.5q216 -40 160 -314l-114 -435q142 252 262 430t237 271q70 53 165 51q36 -2 89 -32.5t87.5 -85t14.5 -130.5q-31 12 -92 13.5t-143 -30t-157.5 -118
t-194.5 -256.5q13 -309 54 -580v0v-1v0q1 -2 1 -3q0 -2 1 -4l-1 -1q17 -162 56.5 -245.5t111.5 -62t186 174.5q99 158 164 356z" />
    <glyph glyph-name="L" unicode="L" horiz-adv-x="1356" 
d="M1199 308v0q31 -177 -39.5 -243t-206 -65t-297.5 26q-107 14 -212.5 23t-197.5 -1q-20 41 -17.5 87t33.5 62q18 8 39 14l343 1318q12 46 -9 55t-64 -8q-142 -61 -216 -198t-39 -288q-150 8 -190.5 72.5t-16.5 161.5q39 148 132 237.5t217.5 127t256.5 28.5
q216 -40 160 -314l-305 -1168q70 -2 142 -6q157 -11 289.5 -1t197.5 80z" />
    <glyph glyph-name="M" unicode="M" horiz-adv-x="1773" 
d="M1858 716v0q8 18 24.5 20t28.5 -10t8 -35q-74 -235 -159 -405.5t-184 -237.5q-81 -49 -171 -42t-143.5 86.5t-22.5 247.5q98 397 178 694l-429 -939q-169 -7 -182 242l-48 721q-12 -49 -25 -98q-62 -247 -128 -484t-139.5 -429t-157.5 -304q-36 -33 -104.5 -29.5
t-117 34.5t-22.5 80q109 116 197 288.5t162 373t139 400.5q84 259 167 463q-6 114 -34.5 165t-65 60.5t-63.5 -2.5q-141 -61 -215.5 -198t-39.5 -288q-150 8 -190 72.5t-17 161.5q35 155 132 246t216.5 125.5t224.5 21.5t157 -63q93 -88 119 -325l60 -820l581 1165v1
q3 8 5 16q23 43 82 21t105 -79t28 -118l-184 -666h-1q-84 -302 -143 -553q-12 -77 12.5 -103.5t63.5 -12.5t71 57q48 64 97.5 170.5t85 198t41.5 108.5q1 1 1 2z" />
    <glyph glyph-name="N" unicode="N" horiz-adv-x="1574" 
d="M1404 1691v0q22 43 81.5 21t106 -79t29.5 -118l-388 -1487q-23 -43 -82.5 -21t-105.5 79t-29 118l18 69l-230 862l-288 -1107q-23 -43 -82.5 -20.5t-105.5 79t-29 117.5l345 1325q12 46 -9 55t-64 -8q-142 -61 -216 -197.5t-40 -288.5q-149 9 -189.5 73.5t-16.5 160.5
q38 148 131.5 237.5t218 127t256.5 28.5q97 -18 140 -84q32 -39 60 -147l221 -823z" />
    <glyph glyph-name="O" unicode="O" horiz-adv-x="1356" 
d="M786 1718v0q251 -19 399.5 -173t186 -398.5t-44.5 -535.5q-107 -331 -261 -480t-370 -127q-138 15 -238 116.5t-136 272.5t18.5 393t225.5 477q38 36 104 21t116 -53t40 -75q-151 -204 -212.5 -408t-46 -366t95.5 -238q65 -52 163.5 55.5t186.5 325t119 496.5
q9 163 -10 299.5t-83 222t-192 95.5q-106 3 -233 -87t-216.5 -260.5t-83.5 -409.5q-42 0 -97.5 15t-93.5 60t-35 132q49 252 159 393t252 194t287 43z" />
    <glyph glyph-name="P" unicode="P" horiz-adv-x="1238" 
d="M106 1324v0q44 180 167.5 274.5t283 114t312.5 -24t256 -140.5q98 -102 114 -239.5t-34 -277.5t-149 -247t-232 -147q-68 -19 -131 -23t-167 1l-154 -587q-23 -43 -82.5 -20.5t-105.5 79t-29 117.5l292 1129q22 43 82 21t107.5 -78.5t31.5 -117.5l-109 -422
q156 3 269 107t163 252t18 282.5t-164 199.5q-164 58 -297.5 -7t-200 -199t-29.5 -281q-150 9 -191.5 73.5t-20.5 160.5z" />
    <glyph glyph-name="Q" unicode="Q" horiz-adv-x="1378" 
d="M786 1718v0q251 -19 399.5 -173t186 -398.5t-44.5 -535.5q-148 -462 -394 -571q105 -7 202.5 11t184.5 78q-2 -157 -80 -214t-204 -54.5t-272 25.5q-119 18 -234 25.5t-210 -17.5q-18 44 3.5 101.5t90.5 74.5q49 5 98 4q-122 89 -176 263t-5 411.5t235 514.5
q38 36 104 21t116 -53t40 -75q-151 -204 -212.5 -408t-46 -366t95.5 -238q65 -52 163.5 55.5t186.5 325t119 496.5q9 163 -10 299.5t-83 222t-192 95.5q-106 3 -233 -87t-216.5 -260.5t-83.5 -409.5q-42 0 -97.5 15t-93.5 60t-35 132q49 252 159 393t252 194t287 43z" />
    <glyph glyph-name="R" unicode="R" horiz-adv-x="1208" 
d="M1293 716v0q9 18 25 20.5t28 -9t8 -33.5q-132 -469 -400 -639v0q-3 -3 -27.5 -18.5t-63.5 -26.5t-85 -0.5t-92.5 58t-85.5 149t-64 273.5l-14 125v0h-1l-152 -587q-23 -43 -81.5 -20.5t-104.5 79t-29 117.5l289 1129q21 43 80.5 21t106.5 -78.5t31 -117.5l-108 -422
q155 3 266.5 107t160.5 252t18 282.5t-162 199.5q-162 58 -294 -7.5t-197.5 -199t-28.5 -280.5q-149 8 -190 73t-20 161q44 180 165.5 274.5t279.5 114t309 -24t253 -140.5q97 -102 112.5 -240t-33.5 -277.5t-147 -246.5t-229 -147q-28 -7 -52 -12l17 -132
q22 -161 60.5 -244.5t107.5 -63t181 173.5q99 158 163 357z" />
    <glyph glyph-name="S" unicode="S" horiz-adv-x="1074" 
d="M506 1699v0q192 49 333.5 -18t180.5 -222.5t-78 -373.5q-38 -47 -93 -39t-84.5 55.5t9.5 117.5q70 108 70.5 186t-42 126t-99.5 67q-82 23 -149 -9.5t-107.5 -94.5t-45.5 -128q-4 -116 79.5 -244t204.5 -232q139 -112 192.5 -232.5t43.5 -250.5q-21 -192 -163.5 -303
t-357.5 -104q-147 17 -243 97t-137.5 190.5t-26.5 219.5t90 183q62 55 118.5 42t86 -60.5t10.5 -95.5q-102 -210 -73.5 -317.5t135.5 -142.5q113 -22 183 42.5t110 167.5q36 120 -14 226t-152 199q-153 133 -225 254t-75 227q-5 188 86 304.5t233 162.5z" />
    <glyph glyph-name="T" unicode="T" horiz-adv-x="890" 
d="M703 1719v0q189 -17 287 -36q102 -20 186 -17t237 53q2 -87 -19.5 -160.5t-113.5 -104.5q-64 -13 -159.5 -1t-264.5 58l-387 -1483q-22 -43 -81.5 -20.5t-106 79t-29.5 117.5l362 1388q-29 2 -58 2q-195 -6 -297.5 -97t-63.5 -215q14 -30 30.5 -45.5t39.5 -29.5
q14 -10 32 -23q31 -27 21 -59.5t-43.5 -46.5t-73.5 17q-47 46 -74 100q-30 52 -36 121t27.5 142.5t121.5 138.5q96 62 198.5 93t233.5 28q14 3 30 -1z" />
    <glyph glyph-name="U" unicode="U" horiz-adv-x="1505" 
d="M1588 716v0q8 18 24.5 20t29 -10t8.5 -35q-75 -234 -160 -405t-184 -238q-80 -49 -170.5 -42t-144 86.5t-22.5 247.5v1v1q-79 -106 -158 -181.5t-138 -112.5q-79 -48 -157.5 -48t-133 49t-59.5 146q-3 65 18 166.5t54 222.5l249 945q12 46 -9 55t-64 -8
q-142 -61 -216 -197.5t-39 -288.5q-150 8 -190.5 72.5t-16.5 161.5q39 148 132 237.5t217.5 127t256.5 28.5q216 -40 160 -313l-287 -1109q-12 -78 8.5 -103.5t57.5 -10.5t76 56q64 67 155 177t152 196q69 272 135 515t157 566q23 43 82.5 21t105 -79t27.5 -117l-184 -667v0
q-85 -302 -143 -553q-12 -77 12 -103t63 -12.5t72 57.5q47 63 96.5 169.5t85.5 198t42 108.5v2z" />
    <glyph glyph-name="V" unicode="V" horiz-adv-x="1622" 
d="M1428 1714v0q70 -8 130.5 -37.5t90.5 -84.5t8 -140q-35 -146 -94 -337t-141 -389.5t-186 -366.5t-229 -267t-271 -91q-185 23 -186 358q9 427 34.5 691.5t59.5 475.5q12 46 -9 55t-64 -8q-142 -62 -216 -198.5t-40 -287.5q-149 8 -189.5 72.5t-16.5 160.5
q38 148 131.5 238t218 127t256.5 28q100 -14 141.5 -92.5t18.5 -220.5q-46 -303 -82.5 -683t-23.5 -555q9 -61 41 -65t87 62q98 138 214 439t206.5 616.5t110.5 499.5z" />
    <glyph glyph-name="W" unicode="W" horiz-adv-x="2241" 
d="M2024 1717v0q71 -8 135 -37.5t98 -84.5t12 -140q-35 -146 -95.5 -337t-144.5 -389.5t-190.5 -366.5t-233 -267t-272.5 -92q-185 24 -186 359q8 421 33 683q-128 -282 -287.5 -539.5t-378.5 -482.5q-7 -12 -18 -18l-2 -2l-2 -2v2q-37 -11 -89 18t-86 79.5t-18 102.5
l345 1326q12 46 -9 55t-64 -8q-142 -62 -216 -198.5t-40 -287.5q-149 8 -189.5 72.5t-16.5 160.5q38 148 131.5 238t218 127t256.5 28q216 -39 160 -313l-290 -1108q223 300 376.5 594.5t279.5 637.5v2q8 24 47.5 33t86 -2t77 -49t20.5 -108q-46 -303 -82.5 -683t-23.5 -555
q9 -61 41 -65t87 62q98 138 214 438.5t206.5 616.5t109.5 500z" />
    <glyph glyph-name="X" unicode="X" horiz-adv-x="1471" 
d="M1555 715v0q8 19 24.5 21t29 -10t8.5 -35q-76 -235 -162.5 -405.5t-186.5 -237.5q-47 -40 -109 -46.5t-119 27.5q-45 31 -70 74q-97 195 -163 519q-221 -219 -344 -371t-117 -250q-158 36 -166 132.5t102 237t306 307.5q93 88 175 168q-40 228 -77 466q-6 36 -11 72
q-17 95 -41 148.5t-82 31.5q-132 -68 -199.5 -199.5t-33.5 -274.5q-152 8 -193 72.5t-17 160.5q39 148 134 238t221.5 127t260.5 28q65 -9 124.5 -54.5t78.5 -151.5l4 -20q35 -210 69 -405q226 236 319 389t68 244q86 4 134.5 -35t29 -136.5t-138.5 -266t-369 -422.5
q59 -313 133 -562q58 -180 149 -59q49 64 99.5 170.5t86.5 197.5t42 109q0 1 1 1z" />
    <glyph glyph-name="Y" unicode="Y" horiz-adv-x="1498" 
d="M1334 1691v0q23 43 83.5 20.5t107 -79t28.5 -117.5l-314 -1158q-80 -323 -159 -510t-161 -273.5t-169.5 -109t-184.5 -16.5q-159 22 -218 125.5t-30 242.5q37 133 113.5 185t149 26t97.5 -126q-88 -43 -135 -111.5t-41.5 -131.5t75.5 -89q71 -19 127 42.5t113.5 221.5
t131.5 439l72 274q-158 -191 -277 -263q-79 -48 -159.5 -47.5t-135.5 49t-61 145.5q-3 65 18.5 167t55.5 222l193 710q11 46 -10 55t-65 -8q-144 -62 -219.5 -198.5t-40.5 -287.5q-152 8 -193 72.5t-17 160.5q39 148 134 238t221.5 127t260.5 28q220 -39 163 -313l-231 -872
q-12 -79 8.5 -104t58.5 -10.5t78 56.5q58 60 142 158.5t148 184.5z" />
    <glyph glyph-name="Z" unicode="Z" horiz-adv-x="1222" 
d="M1006 1716v0q43 -2 87.5 -33t69 -77.5t9.5 -93.5l-765 -1315q147 79 274 98.5t244 -10.5q87 -24 125.5 -62t49 -90.5t11.5 -120.5q1 -6 1 -12q-206 75 -402.5 70t-421.5 -70v1q-40 -4 -89 26.5t-80 79t-16 97.5l760 1307q-138 -74 -270.5 -92t-241.5 12q-84 24 -121 61.5
t-47 90.5t-12 121v12q194 -74 398 -71t415 64q7 4 13 5.5t8 1.5h1v0z" />
    <glyph glyph-name="bracketleft" unicode="[" horiz-adv-x="758" 
d="M819 1991v0q43 -8 54.5 -66.5t3.5 -122t-22 -87.5q-57 -1 -111 8q-66 11 -126 5q-219 -848 -377 -1697l186 10q46 -2 48.5 -76.5t-11.5 -199.5h-199q-125 -3 -191 71.5t-42 267.5q65 434 152.5 852.5t211.5 814.5q27 113 78.5 169.5t169.5 50.5h175z" />
    <glyph glyph-name="backslash" unicode="\" horiz-adv-x="569" 
d="M-55 1899v0l754 -1864q16 -27 -5 -72t-60 -88t-77 -65t-55 -3l-753 1863q-17 28 4 73t60.5 88t77 65t54.5 3z" />
    <glyph glyph-name="bracketright" unicode="]" horiz-adv-x="758" 
d="M586 1992v0q125 2 190.5 -72t42.5 -268q-64 -433 -152 -851.5t-212 -815.5q-27 -112 -78.5 -168.5t-169.5 -50.5h-175q-43 8 -58 64.5t-11 119t18 86.5q55 1 114 -5q75 -9 138 -3q219 849 377 1698l-186 -10q-46 2 -48.5 76t11.5 200h199z" />
    <glyph glyph-name="asciicircum" unicode="^" 
d="M652 1662v0l151 -375q8 -28 -17 -50.5t-59.5 -27t-56.5 21.5l-129 241l-238 -241q-33 -26 -69 -21.5t-55 27t0 50.5l270 375q51 58 95.5 62.5t73.5 -18t34 -44.5z" />
    <glyph glyph-name="underscore" unicode="_" horiz-adv-x="1200" 
d="M1160 -15v0q40 -9 35.5 -64t-40.5 -106.5t-90 -50.5l-1017 -2q-41 9 -36 64t41 106.5t90 50.5z" />
    <glyph glyph-name="grave" unicode="`" horiz-adv-x="377" 
d="M176 1695v0l188 -271q13 -21 -5.5 -39.5t-49 -24t-55.5 12.5l-226 210q-46 46 -16.5 83t83.5 48.5t81 -19.5z" />
    <glyph glyph-name="a" unicode="a" horiz-adv-x="1108" 
d="M448 251q85 84 162 279t77 357q-6 78 -58.5 100.5t-116.5 -36.5q-56 -55 -125.5 -159.5t-111 -239t-13.5 -277.5q20 -67 74 -70.5t112 46.5zM1192 714q9 18 25 20t28.5 -10t8.5 -35q-75 -234 -159.5 -404t-183.5 -237q-78 -47 -156.5 -47t-132.5 48.5t-60 145.5v12
q-83 -117 -169 -164.5t-160.5 -40.5t-121.5 50q-109 111 -111 286.5t68.5 358.5t178.5 314q112 128 219 166t190 8.5t123 -103.5q2 8 4 15q27 61 95.5 84t122.5 7t38 -74q-7 -24 -14 -49q-117 -411 -203 -770q-15 -79 9.5 -105t64.5 -11t73 58q47 63 96.5 169.5t85 197.5
t41.5 108v2z" />
    <glyph glyph-name="b" unicode="b" horiz-adv-x="1018" 
d="M1096 709v0q8 21 26 24t32 -8.5t8 -35.5q-46 -182 -136 -272.5t-228 -111.5q-59 -118 -148.5 -199.5t-208.5 -101.5q-82 -11 -159 35t-119 152l-42 -163q-23 -43 -82 -21t-105.5 78.5t-29.5 117.5l387 1482q22 43 81.5 21t105.5 -78.5t29 -117.5l-103 -394q38 37 76 57
q77 35 171.5 10.5t167.5 -116.5t87 -257q9 -188 -58 -387q80 14 144 83t104 203zM454 257v0q35 29 63 63q-52 23 -54 76q8 48 53 71t90 0q49 126 57 246.5t-4 196.5q-13 64 -52 90t-84.5 18.5t-78.5 -45.5q-98 -123 -153.5 -317t-36.5 -307q18 -73 79.5 -102t120.5 10z" />
    <glyph glyph-name="c" unicode="c" horiz-adv-x="843" 
d="M927 713v0q9 18 25.5 20t28.5 -9t8 -33q-133 -467 -403 -636q-127 -67 -248 -55t-221 112q-89 108 -110 266t21 324t142 296t253 181q126 35 228 -17t137.5 -172.5t-39.5 -293.5q-33 -53 -90.5 -41t-93.5 57t-2 90q34 36 51 85.5t11 117.5q-2 21 -18 30t-58 -9
q-174 -107 -249.5 -265.5t-69 -312.5t78.5 -246q58 -60 130 -68t161 48q111 79 191.5 220.5t135.5 310.5z" />
    <glyph glyph-name="d" unicode="d" horiz-adv-x="1118" 
d="M1203 713v0q8 18 24 20t28.5 -10t8.5 -34q-75 -234 -159.5 -404.5t-183.5 -237.5q-78 -47 -156.5 -47t-132.5 49t-60 145q0 15 1 30q-84 -126 -173 -177.5t-166 -45.5t-124 51q-108 121 -110 296t68 353.5t178 309.5q111 126 216.5 164.5t188.5 11t125 -99.5l169 598
q23 43 82 21t104.5 -78.5t27.5 -117.5l-183 -664h-1q-84 -301 -142 -551q-16 -80 8.5 -106t64.5 -11t73 58q47 63 96.5 169.5t85 197.5t41.5 108q0 1 1 2zM447 250v0q86 84 163 279t76 357q-5 78 -57.5 100.5t-117.5 -35.5q-56 -56 -125.5 -160.5t-110.5 -238.5t-14 -278
q20 -67 74 -70.5t112 46.5z" />
    <glyph glyph-name="e" unicode="e" horiz-adv-x="843" 
d="M927 713v0q9 18 25.5 20t28.5 -9t8 -33q-133 -467 -403 -636q-127 -67 -248 -55t-221 112q-89 108 -110 266t21 324t142 296t253 181q113 32 208.5 -8t141.5 -137.5t11 -241.5q-61 -187 -208 -264.5t-346 -77.5q7 -156 79 -248q58 -60 130 -68t161 48q111 79 191.5 220.5
t135.5 310.5zM549 1026v0q-148 -89 -224 -219t-90 -265q244 65 342 250q51 97 48 213q-2 21 -18 30t-58 -9z" />
    <glyph glyph-name="f" unicode="f" horiz-adv-x="710" 
d="M783 687v0q8 21 26.5 24t32.5 -8.5t9 -35.5q-43 -157 -128 -226.5t-198 -70.5q29 -129 25 -274t-54 -305q-86 -218 -208 -293t-234.5 -35t-170.5 168t-16 314l181 632q-80 131 -72.5 227t61.5 136t115 3l213 743q23 43 84 20.5t108.5 -79t29.5 -116.5l-210 -764
q74 -125 125 -288q88 -7 163 44t118 184zM235 -340v0q82 215 101 399t-8 343q-24 8 -48 17l-190 -698q-21 -98 4 -134t67.5 -16.5t73.5 89.5z" />
    <glyph glyph-name="g" unicode="g" horiz-adv-x="1068" 
d="M730 -53v0q141 -25 232 -91.5t98.5 -169t-101.5 -237.5q-22 120 -97.5 196t-183.5 110q-93 -285 -194.5 -422t-209.5 -174t-221 -21q-156 34 -224 145.5t-36 250.5q26 129 128.5 230t250 157.5t306.5 53.5l51 183q-79 -93 -159.5 -129t-147.5 -27t-108 50
q-108 121 -110 296t68 353.5t178 309.5q114 129 222 166t191 6t122 -107l6 20q27 61 95.5 84t122.5 7t38 -74zM451 250v0q86 84 163 279t76 357q-6 78 -58 100.5t-117 -35.5q-56 -56 -125.5 -160.5t-111 -238.5t-13.5 -278q20 -67 74 -70.5t112 46.5zM28 -776v0
q75 -25 139.5 34t116 159.5t86 201t49.5 159.5q-194 -18 -309 -92.5t-159 -170.5t-23 -177.5t100 -113.5z" />
    <glyph glyph-name="h" unicode="h" horiz-adv-x="1020" 
d="M1104 713v0q8 18 24.5 20t29 -10t8.5 -34q-75 -234 -159.5 -404.5t-183.5 -237.5q-78 -47 -156.5 -47t-133 49t-59.5 145q-3 69 20 177.5t60 235.5h1q42 172 104 340q-104 -83 -249.5 -298.5t-254.5 -492.5l-34 -125q-22 -43 -81.5 -21t-105.5 78.5t-29 117.5l405 1482
q22 43 81.5 21t105.5 -79t29 -117l-236 -864q105 185 211.5 314.5t192.5 196.5q52 36 116 33.5t103.5 -44t19.5 -123.5q-66 -212 -122 -419h1q-45 -169 -78 -312q-15 -80 9 -106t64.5 -11t72.5 58q48 63 97.5 169.5t85 197.5t41.5 108v2z" />
    <glyph glyph-name="i" unicode="i" horiz-adv-x="498" 
d="M583 713v0q8 18 24 20t28.5 -10t8.5 -35q-75 -234 -159.5 -404t-183.5 -237q-78 -47 -156.5 -47t-132.5 48.5t-60 145.5q-2 65 18.5 166.5t54.5 221.5l158 585q22 43 81.5 20.5t105.5 -79t29 -116.5l-182 -698q-11 -78 11.5 -104t60 -11.5t70.5 57.5q47 63 96.5 169.5
t85 197.5t41.5 108q0 1 1 2zM439 1280v0q-21 -28 -74 -16.5t-95.5 44.5t-33.5 69l72 209q11 33 59.5 36t103 -16.5t82.5 -56t-2 -81.5z" />
    <glyph glyph-name="j" unicode="j" horiz-adv-x="458" 
d="M121 -53v0q141 -25 232 -91.5t98.5 -169t-101.5 -237.5q-22 120 -97.5 196t-183.5 110q-93 -285 -194.5 -422t-209.5 -174t-221 -21q-156 34 -224 145.5t-36 250.5q26 129 128.5 230t250 157.5t306.5 53.5l319 1192q22 43 81.5 21t105.5 -79t29 -117zM-581 -776v0
q75 -25 139.5 34t116 159.5t86 201t49.5 159.5q-194 -18 -309 -92.5t-159 -170.5t-23 -177.5t100 -113.5zM297 1586v0q11 33 59.5 36t102.5 -16.5t82 -56t-2 -81.5l-111 -188q-22 -28 -75 -16.5t-95.5 44.5t-33.5 69z" />
    <glyph glyph-name="k" unicode="k" horiz-adv-x="951" 
d="M1035 713v0q9 18 25.5 20t28.5 -9t9 -33q-134 -467 -404 -636q0 -1 -18 -8.5t-48.5 -12t-68.5 3.5t-79 37.5t-80.5 89.5t-72.5 160t-55 250q25 11 52 22q96 38 187 88t144 128q29 55 20 113t-51 81t-114 -27q-106 -88 -203 -238l-186 -714q-22 -43 -81.5 -21t-105.5 78.5
t-29 117.5l386 1482q23 43 82 21t105.5 -78.5t29.5 -117.5l-137 -525q124 191 300 209q109 7 174 -69.5t62.5 -192t-94.5 -224.5t-297 -167q16 -165 56 -261t112.5 -86t187.5 163q99 158 163 356z" />
    <glyph glyph-name="l" unicode="l" horiz-adv-x="493" 
d="M577 713v0q8 18 24.5 20t29 -10t8.5 -34q-75 -234 -159.5 -404.5t-183.5 -237.5q-80 -49 -170 -41.5t-143 86.5t-23 247q96 383 172.5 670.5t186.5 675.5q23 43 82 21t104.5 -78.5t28.5 -117.5l-184 -664v0q-84 -301 -143 -551q-12 -77 12 -103.5t63 -12.5t71 57
q48 63 97.5 169.5t85 197.5t41.5 108v2z" />
    <glyph glyph-name="m" unicode="m" horiz-adv-x="1570" 
d="M1655 713v0q8 18 24.5 20t28.5 -10t8 -34q-74 -234 -159 -404.5t-183 -237.5q-80 -49 -170.5 -41.5t-143.5 86.5t-22 247q77 304 169 608q-110 -91 -254.5 -335t-251.5 -549l-9 -32q-22 -43 -81.5 -21t-105.5 78.5t-29 117.5q47 190 100.5 378.5t121.5 374.5
q-111 -92 -264.5 -341.5t-261.5 -556.5l-8 -30q-22 -43 -81.5 -21t-105.5 78.5t-29 117.5l264 965q22 43 81.5 21t105.5 -78.5t29 -117.5l-107 -391q216 409 398 555q52 36 117 33.5t106 -44t20 -123.5q-36 -119 -66 -239q-24 -91 -50 -183q105 203 209 344t193 212
q51 36 114.5 33.5t103 -44t17.5 -123.5q-14 -46 -57 -201t-85.5 -314t-55.5 -216q-12 -77 12 -103.5t62.5 -12.5t71.5 57q48 63 97 169.5t84.5 197.5t41.5 108q1 1 1 2z" />
    <glyph glyph-name="n" unicode="n" horiz-adv-x="1044" 
d="M1129 713v0q8 18 24.5 20t29 -10t8.5 -34q-75 -234 -159.5 -404.5t-183.5 -237.5q-80 -49 -170 -41.5t-143.5 86.5t-22.5 247q76 297 165 595q-113 -102 -264 -340.5t-255 -532.5l-8 -30q-23 -43 -82 -21t-105.5 78.5t-29.5 117.5l264 965q23 43 82 21t105.5 -78.5
t29.5 -117.5l-107 -391q105 202 212 343t196 212q49 35 111 34q6 0 14.5 -1t23.5 -4q-7 2 -3 1t15 -4q41 -2 71 -42.5t11 -117.5q-15 -46 -58 -201t-85 -314t-56 -216q-12 -77 12 -103.5t63 -12.5t71 57q48 63 97.5 169.5t85 197.5t41.5 108v2z" />
    <glyph glyph-name="o" unicode="o" horiz-adv-x="941" 
d="M1009 709v0q8 21 26 24t31.5 -8.5t8.5 -35.5q-51 -200 -150.5 -291t-264.5 -99q-78 -135 -181 -216t-207 -81t-172.5 80.5t-90.5 215.5t12 301v1q36 167 114.5 301.5t181 215.5t206.5 81t173 -81t91 -215.5t-12 -301.5v-1q-21 -95 -56 -181q98 -1 170.5 67.5t119.5 223.5
zM324 198v0q72 -2 140 113q-75 21 -78 85q8 49 54 72t90 -2q18 56 29 118v0q30 171 5 288.5t-93 128.5v0q-70 2 -136 -107t-99 -279q-29 -171 -4 -288.5t92 -128.5v0z" />
    <glyph glyph-name="p" unicode="p" horiz-adv-x="1031" 
d="M1110 709v0q8 21 26 24t31.5 -8.5t8.5 -35.5q-45 -179 -133 -270t-223 -112q-59 -120 -148.5 -202t-209.5 -102q-70 -11 -150 37.5t-126 158.5l-195 -720q-22 -43 -81.5 -21t-105.5 78.5t-29 117.5l408 1511q16 34 56 28t83.5 -38.5t67.5 -77.5q55 66 111 96
q77 35 171.5 10.5t168 -116.5t87.5 -257q8 -187 -58 -386q78 17 139.5 85.5t100.5 199.5zM475 257v0q34 28 61 60q-57 23 -59 79q9 50 56.5 72.5t91.5 -5.5q51 127 59.5 249t-3.5 198q-13 64 -52 90t-85 18.5t-79 -45.5q-98 -123 -153 -317t-37 -307q19 -73 80.5 -102
t119.5 10z" />
    <glyph glyph-name="q" unicode="q" horiz-adv-x="1052" 
d="M1133 709v0q8 21 25.5 24t30.5 -8.5t8 -35.5q-57 -205 -169.5 -365t-275.5 -211l-167 -635q-22 -43 -81.5 -20.5t-105.5 79t-29 116.5l126 465q-109 -109 -212 -116.5t-165 50.5q-111 121 -117.5 296t59.5 353.5t171 309.5q108 125 212.5 163.5t188 11.5t126.5 -98l3 8
q27 61 95.5 84t122.5 7t38 -74l-109 -405v0l-119 -456q111 38 200.5 163t143.5 294zM450 250v0q86 86 159 287l54 199q15 82 11 150q-7 78 -60 100.5t-116 -35.5q-55 -56 -122 -160.5t-105.5 -238.5t-7.5 -278q22 -67 76 -70.5t111 46.5z" />
    <glyph glyph-name="r" unicode="r" horiz-adv-x="685" 
d="M770 713v0q8 18 24 20t28.5 -10t8.5 -34q-74 -234 -159 -404.5t-184 -237.5q-78 -47 -156.5 -47t-132.5 49t-60 145q-2 65 18.5 166.5t54.5 221.5l9 31h-1q42 158 87 315l12 54q-44 -2 -80 4q-57 -219 -126 -410q-10 -23 -28 -26.5t-30.5 9t-8.5 34.5q61 177 102 339
q10 37 20 75q-146 73 -51 355q21 45 68.5 45t86 -26t31.5 -62q-29 -71 -39 -121t13 -79q22 -23 54.5 -23.5t76.5 7.5q7 1 16 2q84 8 127 -44.5t26 -119.5q-108 -348 -173 -646q-11 -79 12 -105t60 -11.5t70 57.5q48 63 97 169.5t84.5 197.5t41.5 108q1 1 1 2z" />
    <glyph glyph-name="s" unicode="s" horiz-adv-x="719" 
d="M801 709v0q8 21 24.5 24t29 -8.5t6.5 -35.5q-33 -155 -107.5 -311.5t-187 -262.5t-258.5 -110q-133 -21 -230 75q-70 89 -32 219q15 37 47.5 42.5t60 -9t29.5 -38.5q-20 -59 -16.5 -104.5t56.5 -36.5q63 25 67 153.5t-33 340.5q-25 160 -14 273q-56 -114 -108 -272
q-14 -43 -30 -87q-7 -18 -25.5 -21t-32.5 7.5t-9 32.5q16 46 31 91q43 139 93.5 256.5t127.5 190t201 75.5q8 1 17 1q100 -1 161 -70.5t35 -215.5q-15 -36 -48.5 -42t-60.5 10t-22 46q17 52 18 89t-24 49q-18 4 -32 -3q-6 -7 -13 -10q-51 -52 -9 -334q60 -308 25 -490
q90 81 158.5 213.5t104.5 272.5z" />
    <glyph glyph-name="t" unicode="t" horiz-adv-x="522" 
d="M599 712v0q8 19 24.5 20.5t29 -10t8.5 -34.5q-75 -234 -159.5 -404t-183.5 -237q-80 -49 -170 -42t-143 86.5t-23 246.5q120 484 222 856h-178q4 65 25.5 103.5t66.5 38.5l126 1q43 156 97 348q23 42 82 20t104.5 -78.5t28.5 -116.5l-48 -172h184q-3 -69 -27.5 -108.5
t-77.5 -35.5h-119l-96 -349v0q-84 -300 -143 -551q-12 -77 12 -103t63 -12t71 57q48 63 97.5 169t85 197t41.5 109v1z" />
    <glyph glyph-name="u" unicode="u" horiz-adv-x="1024" 
d="M1108 713v0q8 18 24.5 20t29 -10t8.5 -34q-75 -234 -159.5 -404.5t-183.5 -237.5q-78 -47 -156.5 -47t-133 49t-59.5 145q-2 30 3 69q-80 -154 -173 -216q-78 -47 -156.5 -47t-132.5 49t-60 145q-2 65 18.5 166.5t54.5 221.5l158 585q22 43 81.5 21t105.5 -79t29 -117
l-182 -697q-11 -79 11.5 -105t60 -11.5t70.5 57.5q60 83 120.5 221.5t89.5 218.5l132 491q23 43 82 21t105.5 -79t29.5 -117l-183 -697q-11 -79 12 -105t60.5 -11.5t69.5 57.5q48 63 97.5 169.5t85 197.5t41.5 108v2z" />
    <glyph glyph-name="v" unicode="v" horiz-adv-x="932" 
d="M710 1192v0q106 -12 164 -73.5t27 -187.5q-60 -242 -171.5 -459t-254.5 -349t-297 -119q-129 18 -166 169t37 461l143 531q22 43 81.5 21t105.5 -78t29 -116q-168 -441 -198 -827q3 -63 37.5 -66t90.5 63q143 197 244 481t128 549z" />
    <glyph glyph-name="w" unicode="w" horiz-adv-x="1424" 
d="M1201 1192v0q106 -12 164.5 -73.5t26.5 -187.5q-60 -242 -171 -459t-254 -349t-298 -119q-85 13 -131 83.5t-46 206.5q-87 -178 -189 -247q-78 -47 -156.5 -47t-132.5 49t-60 145q-2 65 18.5 166.5t54.5 221.5l158 585q22 43 81.5 21t105.5 -79t29 -117l-182 -697
q-11 -79 11.5 -105t60 -11.5t70.5 57.5q41 54 84 142.5t78 175.5q8 38 18 80l142 531q23 43 82 21t105.5 -78t29.5 -116q-169 -441 -198 -827q2 -63 37 -66t91 63q143 197 244 481t127 549z" />
    <glyph glyph-name="x" unicode="x" horiz-adv-x="945" 
d="M1029 713v0q9 18 25 20t28.5 -9t9.5 -33q-119 -467 -384 -636v-1q-3 -3 -32.5 -21t-76 -28.5t-102 6t-112.5 81t-106 198.5l-196 -259q-30 -32 -65 -29.5t-52 34.5t7 89l254 348v0v0q-34 164 -44 335q-30 -119 -76 -234q-7 -18 -25.5 -21t-33 7t-9.5 32q44 117 81 269.5
t51 284.5v7v6q0 6 2 10v0v1v0q17 27 79.5 24t122 -33t67.5 -84q5 -145 18 -284l269 369q34 43 71 29.5t53 -59t-12 -99.5l-352 -465q7 -40 14 -79q36 -158 81 -241t114.5 -63t177.5 172q95 158 153 356z" />
    <glyph glyph-name="y" unicode="y" horiz-adv-x="978" 
d="M638 -53v0q142 -25 233 -91.5t98.5 -169t-101.5 -237.5q-22 120 -97.5 196t-183.5 110q-93 -285 -194.5 -422t-209.5 -174t-221 -21q-156 34 -224 145.5t-36 250.5q26 129 128.5 230t250 157.5t306.5 53.5l63 235q-67 -113 -143 -163q-78 -47 -156.5 -47t-132.5 49
t-60 145q-2 65 18.5 166.5t54.5 221.5l158 585q22 43 81.5 21t105.5 -79t29 -117l-182 -697q-11 -79 11.5 -105t60 -11.5t70.5 57.5q59 81 118.5 217t89.5 218l133 496q22 43 81.5 21t105.5 -79t29 -117zM-63 -776v0q75 -25 139.5 34t116 159.5t86 201t49.5 159.5
q-194 -18 -309 -92.5t-159 -170.5t-23 -177.5t100 -113.5z" />
    <glyph glyph-name="z" unicode="z" horiz-adv-x="945" 
d="M1026 710v0q8 20 25.5 23t30.5 -8.5t8 -35.5q-48 -173 -135.5 -332.5t-212.5 -249.5q0 -1 1 -1l2 -6q43 -108 31 -227t-84.5 -220.5t-211.5 -158t-349 -41.5q-92 9 -156.5 46.5t-82.5 101t29 149.5q53 92 207 184q150 90 387 186q-9 36 -25 62t-45 58q-65 -60 -148 -117
q-62 -30 -111.5 3.5t-68.5 85t11 76.5q160 113 259.5 234.5t160.5 253t105 272.5q-59 -27 -109 -52q-100 -52 -179 -80t-155 -15q-49 -172 -103 -325q-10 -23 -28 -26t-30.5 9t-8.5 34q61 176 101 338q-159 104 -30 431q21 45 75.5 45.5t99 -26t38.5 -62.5q-10 -26 -18 -48
q-30 -77 -37 -110.5t19 -26.5l333 51q74 20 147.5 -24t97.5 -146t-52 -257q-64 -123 -130 -228.5t-150 -199.5q89 -37 164 -143q106 72 191.5 215t136.5 308zM-7 -375v0q39 -73 132 -71t196 63t171 164.5t57 233.5q-111 -45 -183.5 -77.5t-140.5 -74.5q-58 -31 -114.5 -72
t-91 -84.5t-26.5 -81.5z" />
    <glyph glyph-name="braceleft" unicode="{" horiz-adv-x="899" 
d="M440 985v0q100 -65 124.5 -169.5t4 -230t-54.5 -253.5q-33 -123 -50.5 -232t7.5 -188t119 -112q-123 -93 -234.5 -41t-144.5 234q-15 89 4.5 189t51.5 205q36 115 57 229t-1.5 220.5t-119.5 198.5q111 23 174 105t96.5 195.5t56.5 230.5q18 95 40 175t58 131
q57 83 142 109t164 1.5t117 -93.5q-90 11 -142.5 -40.5t-83.5 -142.5t-55 -200q-26 -113 -61.5 -221t-98.5 -189t-170 -111z" />
    <glyph glyph-name="bar" unicode="|" horiz-adv-x="797" 
d="M550 1967v0q20 44 81 26t110 -71.5t36 -115.5l-412 -2032q-20 -44 -80.5 -26t-110 71.5t-35.5 115.5z" />
    <glyph glyph-name="braceright" unicode="}" horiz-adv-x="1000" 
d="M815 1742v0q16 -89 -4 -189t-52 -205q-35 -114 -56.5 -228.5t1.5 -221t120 -198.5q-111 -23 -174 -105t-97 -195.5t-56 -230.5q-19 -94 -41 -174t-57 -131q-58 -83 -143 -109.5t-163.5 -2t-116.5 93.5q89 -10 141.5 41t83.5 142.5t56 200.5q25 112 61 220.5t98.5 189
t169.5 111.5q-100 65 -124 169t-4 229.5t55 254.5q32 122 49.5 231t-7 188t-118.5 112q123 93 234 41t144 -234z" />
    <glyph glyph-name="asciitilde" unicode="~" horiz-adv-x="1399" 
d="M210 835v0q0 134 48 197t128.5 78t180.5 0.5t206 -38.5q146 -34 275 -43.5t207 54.5q0 -107 -32.5 -168t-89 -87.5t-130 -28t-157 12t-169.5 32.5q-144 32 -269 41.5t-198 -50.5z" />
    <glyph glyph-name="a1" unicode="&#xe000;" horiz-adv-x="1711" 
d="M924 136v0q-14 168 50 305t172 220.5t225 93t208 -76.5q95 -104 113.5 -285t-42 -371.5t-203.5 -321.5q-173 -143 -337 -159.5t-294 65.5t-199.5 237.5t-53.5 358.5q-82 -116 -168.5 -162t-161 -39.5t-121.5 50.5q-110 111 -112 287t69 359t180 315q113 128 220.5 166
t191.5 8.5t125 -103.5l3 15q28 60 97 83.5t123.5 7t37.5 -74.5q-39 -150 -83 -299q-44 -148 -82 -293.5t-62 -285.5q-39 -232 12.5 -370.5t164 -182t256.5 11.5q109 54 196 155.5t131.5 235t24.5 283.5q-21 115 -77 170t-129 38.5t-146 -117.5q-140 -215 -58 -489
q-95 -59 -168 -22t-103 187zM452 250v0q86 84 163.5 279.5t76.5 357.5q-5 78 -58 100.5t-118 -35.5q-57 -56 -126.5 -160.5t-111.5 -239t-14 -278.5q20 -67 74.5 -70.5t113.5 46.5z" />
    <glyph glyph-name="h2" unicode="&#xe00c;" horiz-adv-x="1045" 
d="M1129 714v0q8 18 24.5 20t29 -10t8.5 -35q-75 -234 -160.5 -404.5t-185.5 -237.5q-78 -48 -157 -47.5t-134 49t-60 145.5q-3 68 20 177t60 237h1q43 172 105 340q-105 -83 -251.5 -299t-256.5 -494l-34 -125q-23 -43 -82.5 -21t-106 79t-29.5 117l323 1179
q-471 89 -818 136t-561 8.5t-287 -204.5q1 245 134 348.5t369.5 102t545.5 -71t660 -168.5q112 251 241.5 352t254 93t219 -84t136.5 -180q53 -133 14 -241.5t-195.5 -151t-455.5 20.5l-192 -695q106 186 213.5 316t193.5 197q53 36 117.5 33.5t104.5 -44.5t20 -124
q-67 -212 -123 -419v0q-45 -170 -78 -313q-15 -80 9 -106t64.5 -11t73.5 58q48 63 98 169.5t85.5 197.5t41.5 109q1 1 1 2zM988 1715v0q-44 67 -123 84.5t-166.5 -53.5t-155.5 -271q218 -52 333.5 -25t140 101.5t-28.5 163.5z" />
    <glyph glyph-name="p2" unicode="&#xe013;" horiz-adv-x="1046" 
d="M128 -50v0q187 -24 412 -58q248 -39 503 -71t479 -38t378 33.5t200 145.5q-1 -232 -158.5 -330t-437 -97t-646.5 64.5t-787 153.5q-94 -285 -197.5 -423t-212.5 -175t-219 -19q-157 35 -225.5 146.5t-36.5 250.5q26 130 129.5 230.5t252 157.5t308.5 54l321 1194
q17 34 58.5 27t85.5 -40.5t67 -79.5q55 63 109 91q78 36 173 11.5t169 -117t88 -257.5q9 -187 -59 -386q79 16 141 85t102 200q8 20 26 23.5t32 -8t8 -35.5q-46 -179 -134.5 -270t-223.5 -113q-60 -120 -150.5 -202t-210.5 -103q-72 -11 -152.5 38t-126.5 159zM475 967v0
q-99 -123 -154.5 -317t-37.5 -308q19 -73 81 -102t121 10q34 28 62 61q-58 22 -60 79q9 49 56.5 72t92.5 -6q52 127 60 249.5t-4 199.5q-13 63 -52.5 89t-85.5 18.5t-79 -45.5zM-583 -778v0q75 -24 140.5 34.5t117 159.5t86.5 202t50 160q-195 -19 -311.5 -93.5
t-160.5 -170.5t-22.5 -177.5t100.5 -114.5z" />
    <glyph glyph-name="a3" unicode="&#xe014;" horiz-adv-x="1004" 
d="M2078 -60v0q68 2 120.5 -30t82.5 -76.5t31 -78t-33 -34.5q-240 4 -699 -97q-466 -106 -705.5 -72.5t-303.5 198.5t-5 455q-83 -117 -170 -164t-161.5 -40.5t-122.5 50.5q-110 110 -112 285t69 357t180 312q113 127 220.5 165t191.5 8.5t124 -102.5l2 6q1 4 2 9
q28 60 97 83t123.5 7t37.5 -74q-47 -166 -92.5 -336.5t-69.5 -257.5q-11 -41 -11 -44q-94 -371 -111 -556.5t81 -223.5t351 32q270 91 490 149t393 70zM452 249v0q86 83 163.5 277t76.5 356q-5 77 -58 99.5t-118 -35.5q-57 -55 -126.5 -159.5t-111.5 -238t-14 -276.5
q20 -66 74.5 -69.5t113.5 46.5z" />
    </font>
</defs>
</svg>
